<svg id="Camada_1" data-name="Camada 1" xmlns="http://www.w3.org/2000/svg" viewBox="0 0 500 500"><defs><style>.cls-1{fill:#f0b100;}.cls-2{fill:#071121;}.cls-3{fill:none;stroke:#071121;stroke-linecap:round;stroke-linejoin:round;stroke-width:36px;}</style></defs><rect class="cls-1" width="500" height="500"/><path class="cls-2" d="M68.08,198.47H432.74c17.77,0,32.17,15.19,32.17,33.93V334.16c0,18.73-14.4,33.92-32.17,33.92H68.08c-17.77,0-32.18-15.19-32.18-33.92V232.4C35.9,213.66,50.31,198.47,68.08,198.47Z"/><ellipse class="cls-1" cx="102.03" cy="283.28" rx="36.23" ry="38.19"/><ellipse class="cls-1" cx="398.46" cy="283.28" rx="36.23" ry="38.19"/><rect class="cls-2" x="372.49" y="321.47" width="92.42" height="107" rx="4.31"/><path class="cls-3" d="M65.8,219.34l46.52-98.89a51.22,51.22,0,0,1,38.94-31.87h198c17.56-.06,33.23,8.82,38.94,22.07l46.51,108.69"/><rect class="cls-2" x="15.9" y="171.07" width="98.82" height="48.27" rx="3.15"/><rect class="cls-2" x="385.27" y="171.07" width="98.82" height="48.27" rx="3.15"/><rect class="cls-2" x="35.9" y="321.47" width="92.42" height="107" rx="4.31"/></svg>